<svg id="Capa_1" data-name="Capa 1" xmlns="http://www.w3.org/2000/svg" viewBox="0 0 827.56 319.13"><defs><style>.cls-1{fill:#009ed7;}.cls-2{fill:#31a51e;}</style></defs><path class="cls-1" d="M186.85,230.76c-.46-3.89-2.82-7.32-6.81-9.91a3.34,3.34,0,0,0-1.28-.49c-4.71-.74-8.75.24-11.69,2.82a14.33,14.33,0,0,1-18.92,0c-1.43-1.27-2.84-2.61-4.19-4a14.4,14.4,0,0,1-1.19-18.63c2.3-3.05,3-7.07,2-11.63a3.42,3.42,0,0,0-.55-1.23c-2.74-3.77-6.2-5.94-10-6.26a14.41,14.41,0,0,1-13.07-13.34c-.12-1.91-.18-3.86-.16-5.78a14.33,14.33,0,0,1,12.62-14.08c3.89-.46,7.32-2.82,9.91-6.81a3.32,3.32,0,0,0,.49-1.29c.74-4.7-.24-8.74-2.82-11.68a14.34,14.34,0,0,1,0-18.92c1.27-1.43,2.61-2.84,4-4.19a14.4,14.4,0,0,1,18.63-1.19c3,2.3,7.08,3,11.63,2a3.24,3.24,0,0,0,1.23-.54c3.77-2.74,5.94-6.2,6.27-10a14.4,14.4,0,0,1,13.33-13.06c.9-.06,1.8-.1,2.71-.13V63.07a16.19,16.19,0,0,0-16.18-16.18H133.18A16.19,16.19,0,0,0,117,63.07v58.82H58.18A16.19,16.19,0,0,0,42,138.07v49.64a16.19,16.19,0,0,0,16.18,16.18H117v58.82a16.19,16.19,0,0,0,16.18,16.18h49.64A16.19,16.19,0,0,0,199,262.71V243.22A14.34,14.34,0,0,1,186.85,230.76Z"/><path class="cls-2" d="M271.62,158.19a6.32,6.32,0,0,0-5.77-5.87c-5.63-.49-11.34-3.4-15.79-9.55a11,11,0,0,1-1.89-4.24c-1.6-7.41.05-13.61,3.45-18.13a6.32,6.32,0,0,0-.53-8.21c-1.21-1.25-2.47-2.44-3.77-3.59a6.32,6.32,0,0,0-8.34,0c-4.34,3.81-10.56,5.91-18.21,4.71a11.42,11.42,0,0,1-4.39-1.68c-6.49-4.22-9.72-9.93-10.4-15.67a6.34,6.34,0,0,0-6.2-5.58c-1.73,0-3.47,0-5.21.15a6.32,6.32,0,0,0-5.87,5.77c-.49,5.63-3.4,11.34-9.54,15.79a11.33,11.33,0,0,1-4.25,1.9c-7.41,1.59-13.61,0-18.12-3.46a6.33,6.33,0,0,0-8.22.53c-1.24,1.22-2.44,2.47-3.59,3.77a6.33,6.33,0,0,0,0,8.34c3.81,4.34,5.92,10.56,4.71,18.21a11.26,11.26,0,0,1-1.68,4.39c-4.21,6.5-9.93,9.72-15.67,10.4a6.32,6.32,0,0,0-5.57,6.2c0,1.73,0,3.47.14,5.21a6.32,6.32,0,0,0,5.77,5.87c5.63.49,11.34,3.4,15.79,9.55a11.21,11.21,0,0,1,1.9,4.24c1.59,7.41,0,13.61-3.45,18.13a6.31,6.31,0,0,0,.52,8.21c1.22,1.25,2.48,2.44,3.77,3.59a6.32,6.32,0,0,0,8.34,0c4.34-3.81,10.56-5.91,18.21-4.71a11.2,11.2,0,0,1,4.39,1.68c6.5,4.22,9.72,9.93,10.41,15.67a6.32,6.32,0,0,0,6.19,5.58c1.73,0,3.47,0,5.21-.15a6.34,6.34,0,0,0,5.88-5.77c.48-5.63,3.4-11.34,9.54-15.79a11.21,11.21,0,0,1,4.24-1.9c7.42-1.59,13.61.05,18.13,3.46a6.32,6.32,0,0,0,8.21-.53c1.25-1.22,2.44-2.47,3.59-3.77a6.32,6.32,0,0,0,0-8.34c-3.81-4.34-5.91-10.56-4.71-18.21a11.42,11.42,0,0,1,1.68-4.39c4.22-6.5,9.94-9.72,15.67-10.4a6.33,6.33,0,0,0,5.58-6.2C271.78,161.67,271.73,159.93,271.62,158.19Zm-23,10.74L222.17,168l-9.69,31.13a3.57,3.57,0,0,1-3.42,2.52h-.16a3.58,3.58,0,0,1-3.35-2.84l-12.28-57.9L181.19,183.2a3.59,3.59,0,0,1-6.37,1.12L162.22,167a.26.26,0,0,0-.21-.11H149.77v-7H162a7.29,7.29,0,0,1,5.87,3l8.5,11.66,13.53-47.37a3.95,3.95,0,0,1,7.66.27l12.11,57.11,6-19.22a6.75,6.75,0,0,1,6.55-4.36l26.67.92Z"/><path d="M314.63,99.94V44.35h8.67V99.94Zm4.21-48.17V44.35h35.47v7.42Zm0,24.28V68.63h30.79v7.42Zm0,23.89V92.53h35.47v7.41Z"/><path d="M387.06,100.52A24.51,24.51,0,0,1,375.63,98a18.53,18.53,0,0,1-7.58-7.17A21,21,0,0,1,365.35,80V64.27a21,21,0,0,1,2.7-10.8,18.55,18.55,0,0,1,7.58-7.15,27,27,0,0,1,22.86,0,18.55,18.55,0,0,1,7.58,7.15,21,21,0,0,1,2.7,10.8V80a21,21,0,0,1-2.7,10.78A18.53,18.53,0,0,1,398.49,98,24.51,24.51,0,0,1,387.06,100.52Zm0-7.69a12.69,12.69,0,0,0,9.32-3.44,12.15,12.15,0,0,0,3.51-9.1V64a12.15,12.15,0,0,0-3.51-9.12,14.38,14.38,0,0,0-18.62,0A12.13,12.13,0,0,0,374.23,64V80.29a12.13,12.13,0,0,0,3.53,9.1A12.72,12.72,0,0,0,387.06,92.83Zm22.9,8-23-16.32,4.5-5.16,23,16.28Z"/><path d="M444.62,100.52q-10.32,0-16-5.41T423,79.83V44.35h8.66V80.1q0,6.08,3.4,9.41t9.6,3.32c4.16,0,7.39-1.1,9.66-3.32s3.42-5.36,3.42-9.41V44.35h8.67V79.83q0,9.87-5.69,15.28T444.62,100.52Z"/><path d="M488.63,44.35V99.94H480V44.35Z"/><path d="M503.92,99.94V44.35h8.67V99.94Zm4.46-21.56V71h19.76A9.09,9.09,0,0,0,535,68.33a9.51,9.51,0,0,0,2.56-6.92,9.61,9.61,0,0,0-2.56-7,9.1,9.1,0,0,0-6.82-2.64H508.38V44.35h19.46a21.19,21.19,0,0,1,9.77,2.13,15.72,15.72,0,0,1,6.48,5.94,17.06,17.06,0,0,1,2.31,9,17,17,0,0,1-2.31,8.94,15.63,15.63,0,0,1-6.48,5.93,21.44,21.44,0,0,1-9.77,2.1Z"/><path d="M577.67,100.52A24.51,24.51,0,0,1,566.24,98a18.53,18.53,0,0,1-7.58-7.17A21,21,0,0,1,556,80V64.27a21,21,0,0,1,2.7-10.8,18.55,18.55,0,0,1,7.58-7.15,27,27,0,0,1,22.86,0,18.55,18.55,0,0,1,7.58,7.15,21,21,0,0,1,2.7,10.8V80a21,21,0,0,1-2.7,10.78A18.53,18.53,0,0,1,589.1,98,24.51,24.51,0,0,1,577.67,100.52Zm0-7.69A12.69,12.69,0,0,0,587,89.39a12.15,12.15,0,0,0,3.51-9.1V64A12.15,12.15,0,0,0,587,54.89a14.38,14.38,0,0,0-18.62,0A12.13,12.13,0,0,0,564.84,64V80.29a12.13,12.13,0,0,0,3.53,9.1A12.72,12.72,0,0,0,577.67,92.83Z"/><path d="M630.26,100.52a44.86,44.86,0,0,1-8.48-.77,34.57,34.57,0,0,1-7.43-2.29,32,32,0,0,1-6.48-3.82l5.4-6A25.07,25.07,0,0,0,621,91.8a29.7,29.7,0,0,0,9.22,1.38q6.71,0,10.41-2.26a7,7,0,0,0,3.69-6.31v0a6.18,6.18,0,0,0-1.87-4.86,11.7,11.7,0,0,0-4.9-2.5,58.52,58.52,0,0,0-6.65-1.36c-2.32-.36-4.67-.78-7-1.26a25,25,0,0,1-6.52-2.28,12.1,12.1,0,0,1-4.78-4.45,14.54,14.54,0,0,1-1.81-7.76v0c0-5.18,1.92-9.18,5.74-12s9.22-4.26,16.18-4.26a33.37,33.37,0,0,1,9.73,1.44,35.62,35.62,0,0,1,9.26,4.37l-4.93,6.2a28.37,28.37,0,0,0-7-3.52,22.31,22.31,0,0,0-7-1.15q-6.33,0-9.83,2.28a7.23,7.23,0,0,0-3.5,6.44v0a5.78,5.78,0,0,0,2,4.78,13.33,13.33,0,0,0,5.34,2.42q3.29.8,7.07,1.48,3.39.6,6.8,1.47a23.86,23.86,0,0,1,6.18,2.48A12.46,12.46,0,0,1,651.27,77a14.3,14.3,0,0,1,1.67,7.38v.07A13.7,13.7,0,0,1,647,96.31Q641,100.53,630.26,100.52Z"/><path d="M314.63,187.94V132.35h8.62v55.59Zm5.1,0v-7.22h16.74q6.87,0,9.74-2.37a7.67,7.67,0,0,0,2.87-6.23V172a8.94,8.94,0,0,0-2.44-6.59q-2.44-2.47-8.05-2.47H319.73v-7h18.86c3.2,0,5.61-.69,7.24-2a7.35,7.35,0,0,0,2.44-6q0-4.17-2.71-6.23t-8.16-2.07H319.73v-7.23H339q9.13,0,13.6,4.1t4.46,11a12.09,12.09,0,0,1-2.72,7.63q-2.73,3.45-8.54,4.41a13.43,13.43,0,0,1,8.9,4.55,13.14,13.14,0,0,1,3.16,8.68v.11a13.75,13.75,0,0,1-4.88,11q-4.89,4.17-13.26,4.16Z"/><path d="M379.46,132.35v55.59h-8.67V132.35Z"/><path d="M415.18,188.52A24.51,24.51,0,0,1,403.75,186a18.53,18.53,0,0,1-7.58-7.17,21,21,0,0,1-2.7-10.78V152.27a21,21,0,0,1,2.7-10.8,18.55,18.55,0,0,1,7.58-7.15,27,27,0,0,1,22.86,0,18.48,18.48,0,0,1,7.58,7.15,21,21,0,0,1,2.7,10.8V168a21,21,0,0,1-2.7,10.78,18.47,18.47,0,0,1-7.58,7.17A24.51,24.51,0,0,1,415.18,188.52Zm0-7.69a12.73,12.73,0,0,0,9.33-3.44,12.18,12.18,0,0,0,3.5-9.1V152a12.18,12.18,0,0,0-3.5-9.12,14.4,14.4,0,0,0-18.63,0,12.13,12.13,0,0,0-3.53,9.12v16.28a12.13,12.13,0,0,0,3.53,9.1A12.72,12.72,0,0,0,415.18,180.83Z"/><path d="M476.31,169.06l18.14-36.71h8.11v55.59h-8.45V146.31l.42,2.45-15.2,31.46h-6l-15.2-30.7.42-3.21v41.63h-8.45V132.35h8.11Z"/><path d="M517.86,187.94V132.35h8.66v55.59Zm4.2-48.17v-7.42h35.47v7.42Zm0,24.28v-7.42h30.8v7.42Zm0,23.89v-7.41h35.47v7.41Zm17.21-59.41-4.8-4.51,11.72-9.37,5.61,5.24Z"/><path d="M569.85,187.94V132.35h8.67v55.59Zm5.87,0v-7.41h14q6.84,0,10.6-3.19t3.76-9V152q0-5.82-3.76-9t-10.6-3.19h-14v-7.42h13.72q11.2,0,17.35,5.22t6.14,14.7V168a20,20,0,0,1-2.76,10.76,17.52,17.52,0,0,1-8,6.8,31.12,31.12,0,0,1-12.75,2.35Z"/><path d="M634.76,132.35v55.59H626.1V132.35Z"/><path d="M670.28,188.52a23.67,23.67,0,0,1-11.3-2.58,18.5,18.5,0,0,1-7.52-7.25,21.44,21.44,0,0,1-2.68-10.89V152.54a21.52,21.52,0,0,1,2.68-10.93,18.5,18.5,0,0,1,7.52-7.25,23.67,23.67,0,0,1,11.3-2.58,22.87,22.87,0,0,1,9.79,2.07,20.26,20.26,0,0,1,11.49,14.45h-8.88a11.66,11.66,0,0,0-2.7-4.69,13.45,13.45,0,0,0-4.44-3.11,13,13,0,0,0-5.26-1.11,12.1,12.1,0,0,0-9.16,3.61,13.21,13.21,0,0,0-3.46,9.54V167.8a13.14,13.14,0,0,0,3.46,9.52,12.16,12.16,0,0,0,9.16,3.59,13.8,13.8,0,0,0,7.6-2.29,11.23,11.23,0,0,0,4.8-6.62h8.88a20.22,20.22,0,0,1-4.08,8.68,20.77,20.77,0,0,1-7.43,5.77A22.75,22.75,0,0,1,670.28,188.52Z"/><path d="M722.61,188.52A24.44,24.44,0,0,1,711.19,186a18.49,18.49,0,0,1-7.59-7.17A21,21,0,0,1,700.91,168V152.27a21,21,0,0,1,2.69-10.8,18.51,18.51,0,0,1,7.59-7.15,27,27,0,0,1,22.85,0,18.48,18.48,0,0,1,7.58,7.15,21,21,0,0,1,2.7,10.8V168a21,21,0,0,1-2.7,10.78A18.47,18.47,0,0,1,734,186,24.51,24.51,0,0,1,722.61,188.52Zm0-7.69a12.73,12.73,0,0,0,9.33-3.44,12.18,12.18,0,0,0,3.5-9.1V152a12.18,12.18,0,0,0-3.5-9.12,14.4,14.4,0,0,0-18.63,0,12.13,12.13,0,0,0-3.53,9.12v16.28a12.13,12.13,0,0,0,3.53,9.1A12.72,12.72,0,0,0,722.61,180.83Z"/><path d="M775.2,188.52a44.75,44.75,0,0,1-8.47-.77,34.48,34.48,0,0,1-7.44-2.29,32.19,32.19,0,0,1-6.47-3.82l5.39-6A25.07,25.07,0,0,0,766,179.8a29.74,29.74,0,0,0,9.22,1.38q6.72,0,10.41-2.26a7,7,0,0,0,3.7-6.31v0a6.22,6.22,0,0,0-1.87-4.86,11.75,11.75,0,0,0-4.91-2.5,58.07,58.07,0,0,0-6.65-1.36q-3.48-.54-7-1.26a25.15,25.15,0,0,1-6.52-2.28,12.16,12.16,0,0,1-4.78-4.45,14.64,14.64,0,0,1-1.8-7.76v0c0-5.18,1.91-9.18,5.73-12s9.22-4.26,16.19-4.26a33.36,33.36,0,0,1,9.72,1.44,35.68,35.68,0,0,1,9.27,4.37l-4.93,6.2a28.55,28.55,0,0,0-7-3.52,22.35,22.35,0,0,0-7-1.15q-6.33,0-9.84,2.28a7.25,7.25,0,0,0-3.5,6.44v0a5.78,5.78,0,0,0,2,4.78,13.29,13.29,0,0,0,5.33,2.42q3.28.79,7.07,1.48c2.27.4,4.53.89,6.8,1.47a23.86,23.86,0,0,1,6.18,2.48,12.46,12.46,0,0,1,4.46,4.46,14.3,14.3,0,0,1,1.68,7.38v.07a13.71,13.71,0,0,1-5.95,11.89Q786,188.53,775.2,188.52Z"/><path d="M352,220.35l-18.82,33v22.59h-8.66V253.35l-18.82-33h9.64l13.51,25.09,13.51-25.09Z"/><path d="M400.31,276.52a44.75,44.75,0,0,1-8.47-.77,34.48,34.48,0,0,1-7.44-2.29,32.19,32.19,0,0,1-6.47-3.82l5.39-6a25,25,0,0,0,7.78,4.13,29.63,29.63,0,0,0,9.21,1.38q6.72,0,10.41-2.26a7,7,0,0,0,3.7-6.31v0a6.22,6.22,0,0,0-1.87-4.86,11.75,11.75,0,0,0-4.91-2.5,58.07,58.07,0,0,0-6.65-1.36q-3.48-.54-7-1.26a25.15,25.15,0,0,1-6.52-2.28,12.16,12.16,0,0,1-4.78-4.45,14.64,14.64,0,0,1-1.8-7.76v0c0-5.18,1.91-9.18,5.73-12s9.22-4.26,16.19-4.26a33.47,33.47,0,0,1,9.73,1.44,35.77,35.77,0,0,1,9.26,4.37l-4.93,6.2a28.55,28.55,0,0,0-7-3.52,22.35,22.35,0,0,0-7-1.15q-6.33,0-9.84,2.28a7.25,7.25,0,0,0-3.5,6.44v0a5.78,5.78,0,0,0,2,4.78,13.29,13.29,0,0,0,5.33,2.42q3.29.79,7.07,1.48c2.27.4,4.53.89,6.8,1.47a23.86,23.86,0,0,1,6.18,2.48,12.46,12.46,0,0,1,4.46,4.46,14.3,14.3,0,0,1,1.68,7.38v.07a13.69,13.69,0,0,1-5.95,11.89Q411.11,276.52,400.31,276.52Z"/><path d="M434.47,275.94V220.35h8.66v55.59Zm4.2-48.17v-7.42h35.47v7.42Zm0,24.28v-7.42h30.8v7.42Zm0,23.89v-7.41h35.47v7.41Z"/><path d="M486.46,275.94V220.32h8.67v55.62Zm3.78-23.51V245h21.07a8.05,8.05,0,0,0,6.08-2.38,9.73,9.73,0,0,0,0-12.54,8.08,8.08,0,0,0-6.08-2.37H490.24v-7.41H511a21,21,0,0,1,9.43,2,15.07,15.07,0,0,1,6.27,5.61,17,17,0,0,1,0,16.87,15.14,15.14,0,0,1-6.27,5.62,20.74,20.74,0,0,1-9.41,2Zm31,23.51-14.14-25.23,8.62-1.76,15.8,27Z"/><path d="M556.51,275.94l-20.13-55.59h9.43l14.83,43.59,14.82-43.59h9.43l-20.13,55.59Z"/><path d="M602.9,220.35v55.59h-8.66V220.35Z"/><path d="M638.42,276.52a23.67,23.67,0,0,1-11.3-2.58,18.5,18.5,0,0,1-7.52-7.25,21.44,21.44,0,0,1-2.68-10.89V240.54a21.52,21.52,0,0,1,2.68-10.93,18.5,18.5,0,0,1,7.52-7.25,23.67,23.67,0,0,1,11.3-2.58,22.9,22.9,0,0,1,9.79,2.07A20.26,20.26,0,0,1,659.7,236.3h-8.88a11.66,11.66,0,0,0-2.7-4.69,13.45,13.45,0,0,0-4.44-3.11,13,13,0,0,0-5.26-1.11,12.1,12.1,0,0,0-9.16,3.61,13.21,13.21,0,0,0-3.46,9.54V255.8a13.14,13.14,0,0,0,3.46,9.52,12.16,12.16,0,0,0,9.16,3.59,13.8,13.8,0,0,0,7.6-2.29,11.23,11.23,0,0,0,4.8-6.62h8.88a20.22,20.22,0,0,1-4.08,8.68,20.77,20.77,0,0,1-7.43,5.77A22.78,22.78,0,0,1,638.42,276.52Z"/><path d="M679.83,220.35v55.59h-8.66V220.35Z"/><path d="M715.56,276.52A24.51,24.51,0,0,1,704.13,274a18.53,18.53,0,0,1-7.58-7.17,21,21,0,0,1-2.7-10.78V240.27a21,21,0,0,1,2.7-10.8,18.55,18.55,0,0,1,7.58-7.15,27,27,0,0,1,22.86,0,18.55,18.55,0,0,1,7.58,7.15,21,21,0,0,1,2.7,10.8V256a21,21,0,0,1-2.7,10.78A18.53,18.53,0,0,1,727,274,24.51,24.51,0,0,1,715.56,276.52Zm0-7.69a12.73,12.73,0,0,0,9.33-3.44,12.18,12.18,0,0,0,3.5-9.1V240a12.18,12.18,0,0,0-3.5-9.12,14.4,14.4,0,0,0-18.63,0,12.13,12.13,0,0,0-3.53,9.12v16.28a12.13,12.13,0,0,0,3.53,9.1A12.72,12.72,0,0,0,715.56,268.83Z"/><path d="M768.15,276.52a44.75,44.75,0,0,1-8.47-.77,34.48,34.48,0,0,1-7.44-2.29,31.91,31.91,0,0,1-6.47-3.82l5.39-6a25.07,25.07,0,0,0,7.77,4.13,29.74,29.74,0,0,0,9.22,1.38q6.72,0,10.41-2.26a7,7,0,0,0,3.7-6.31v0a6.22,6.22,0,0,0-1.87-4.86,11.81,11.81,0,0,0-4.91-2.5,58.07,58.07,0,0,0-6.65-1.36q-3.48-.54-7-1.26a25.15,25.15,0,0,1-6.52-2.28,12.16,12.16,0,0,1-4.78-4.45,14.64,14.64,0,0,1-1.8-7.76v0c0-5.18,1.91-9.18,5.73-12s9.22-4.26,16.19-4.26a33.36,33.36,0,0,1,9.72,1.44,35.47,35.47,0,0,1,9.26,4.37l-4.92,6.2a28.55,28.55,0,0,0-7-3.52,22.35,22.35,0,0,0-7-1.15q-6.33,0-9.84,2.28a7.25,7.25,0,0,0-3.5,6.44v0a5.78,5.78,0,0,0,2,4.78,13.29,13.29,0,0,0,5.33,2.42q3.29.79,7.07,1.48c2.27.4,4.53.89,6.8,1.47a23.86,23.86,0,0,1,6.18,2.48,12.46,12.46,0,0,1,4.46,4.46,14.3,14.3,0,0,1,1.68,7.38v.07a13.71,13.71,0,0,1-6,11.89Q778.94,276.52,768.15,276.52Z"/></svg>