<svg width="1200" height="900" viewBox="0 0 1200 900" fill="none" xmlns="http://www.w3.org/2000/svg">
  <rect width="1200" height="900" rx="48" fill="#F7FCFF"/>
  <circle cx="1004" cy="184" r="142" fill="#CFFAFE"/>
  <circle cx="228" cy="724" r="156" fill="#DCFCE7"/>
  <rect x="154" y="170" width="498" height="412" rx="34" fill="#0F172A"/>
  <rect x="182" y="198" width="442" height="356" rx="26" fill="url(#monitorFill)"/>
  <rect x="248" y="264" width="132" height="64" rx="18" fill="rgba(255,255,255,0.18)"/>
  <rect x="408" y="264" width="148" height="64" rx="18" fill="rgba(255,255,255,0.18)"/>
  <path d="M242 430H342L406 330L470 470L544 278" stroke="#31A51E" stroke-width="18" stroke-linecap="round" stroke-linejoin="round"/>
  <rect x="352" y="582" width="100" height="62" rx="24" fill="#CBD5E1"/>
  <rect x="286" y="642" width="232" height="34" rx="17" fill="#94A3B8"/>
  <circle cx="832" cy="448" r="172" fill="#E0F2FE"/>
  <circle cx="832" cy="448" r="126" fill="#009ED7"/>
  <circle cx="832" cy="448" r="58" fill="#F8FAFC"/>
  <path d="M832 276V336M832 560V620M1004 448H944M720 448H660M947 333L904 376M760 520L717 563M717 333L760 376M904 520L947 563" stroke="#0F172A" stroke-width="22" stroke-linecap="round"/>
  <rect x="824" y="154" width="228" height="116" rx="28" fill="#F8FAFC"/>
  <path d="M884 214L924 252L996 180" stroke="#31A51E" stroke-width="24" stroke-linecap="round" stroke-linejoin="round"/>
  <rect x="784" y="650" width="296" height="108" rx="28" fill="#0F172A"/>
  <rect x="826" y="684" width="112" height="24" rx="12" fill="#67E8F9"/>
  <rect x="826" y="724" width="194" height="18" rx="9" fill="#94A3B8"/>
  <defs>
    <linearGradient id="monitorFill" x1="182" y1="198" x2="624" y2="554" gradientUnits="userSpaceOnUse">
      <stop stop-color="#083344"/>
      <stop offset="1" stop-color="#155E75"/>
    </linearGradient>
  </defs>
</svg>
