<svg width="1200" height="900" viewBox="0 0 1200 900" fill="none" xmlns="http://www.w3.org/2000/svg">
  <rect width="1200" height="900" rx="48" fill="#F8FCFF"/>
  <circle cx="956" cy="168" r="132" fill="#E0F2FE"/>
  <circle cx="250" cy="746" r="158" fill="#DCFCE7"/>
  <rect x="286" y="112" width="488" height="688" rx="46" fill="url(#bodyFill)"/>
  <rect x="346" y="176" width="370" height="118" rx="24" fill="#E2E8F0"/>
  <rect x="384" y="214" width="92" height="54" rx="14" fill="#CBD5E1"/>
  <circle cx="552" cy="241" r="34" fill="#94A3B8"/>
  <circle cx="628" cy="241" r="34" fill="#94A3B8"/>
  <rect x="658" y="204" width="34" height="72" rx="17" fill="#009ED7"/>
  <circle cx="530" cy="446" r="186" fill="#F8FAFC" stroke="#CBD5E1" stroke-width="20"/>
  <circle cx="530" cy="446" r="120" fill="#E2E8F0" stroke="#94A3B8" stroke-width="10"/>
  <circle cx="530" cy="446" r="46" fill="#CBD5E1" stroke="#64748B" stroke-width="8"/>
  <path d="M530 346V446M530 446L450 392M530 446L606 392M530 446L450 506M530 446L606 512" stroke="#0F172A" stroke-width="18" stroke-linecap="round"/>
  <rect x="846" y="258" width="182" height="292" rx="30" fill="#0F172A"/>
  <rect x="878" y="300" width="118" height="34" rx="17" fill="#67E8F9"/>
  <rect x="878" y="356" width="90" height="18" rx="9" fill="#94A3B8"/>
  <rect x="878" y="394" width="118" height="18" rx="9" fill="#94A3B8"/>
  <rect x="878" y="432" width="74" height="18" rx="9" fill="#31A51E"/>
  <path d="M852 612H1016" stroke="#009ED7" stroke-width="16" stroke-linecap="round"/>
  <rect x="386" y="736" width="54" height="78" rx="20" fill="#94A3B8"/>
  <rect x="618" y="736" width="54" height="78" rx="20" fill="#94A3B8"/>
  <circle cx="412" cy="820" r="28" fill="#0F172A"/>
  <circle cx="646" cy="820" r="28" fill="#0F172A"/>
  <defs>
    <linearGradient id="bodyFill" x1="286" y1="112" x2="774" y2="800" gradientUnits="userSpaceOnUse">
      <stop stop-color="#F8FAFC"/>
      <stop offset="1" stop-color="#E2E8F0"/>
    </linearGradient>
  </defs>
</svg>
